{"title":"Shamitabh 2015 Hindi Movies PDVDRip XViD AAC New +Sample ~ â˜»rDXâ˜»","uid":11684934,"size":739190555,"categoryP":"video","categoryS":"movies","magnet":"?xt=urn:btih:9a942b2b45ab295d28eed059a056a790001ec531&amp;dn=Shamitabh+2015+Hindi+Movies+PDVDRip+XViD+AAC+New+%2BSample+%7E+%E2%98%BBrDX%E2%98%BB&amp;tr=udp%3A%2F%2Ftracker.openbittorrent.com%3A80&amp;tr=udp%3A%2F%2Fopen.demonii.com%3A1337&amp;tr=udp%3A%2F%2Ftracker.coppersurfer.tk%3A6969&amp;tr=udp%3A%2F%2Fexodus.desync.com%3A6969","seeders":7,"leechers":5,"uploader":"basicssom","files":2,"time":1423280073,"description":"----------------------------------------------------------------\nShamitabh 2015 Hindi Movies PDVDRip XViD AAC New Source with Sample ~ â˜»rDXâ˜»\n\nSCREEN SHOTS &amp; POSTER:\n &lt;a href=&quot;\nhttp://istoreimg.co.nr/2015/2/Shamitabhpd/11.html&quot; rel=&quot;nofollow&quot; target=&quot;_NEW&quot;&gt;\nhttp://istoreimg.co.nr/2015/2/Shamitabhpd/11.html&lt;/a&gt; &lt;a href=&quot;\nhttp://istoreimg.co.nr/2015/2/Shamitabhpd/1.html&quot; rel=&quot;nofollow&quot; target=&quot;_NEW&quot;&gt;\nhttp://istoreimg.co.nr/2015/2/Shamitabhpd/1.html&lt;/a&gt; &lt;a href=&quot;\nhttp://istoreimg.co.nr/2015/2/Shamitabhpd/2.html&quot; rel=&quot;nofollow&quot; target=&quot;_NEW&quot;&gt;\nhttp://istoreimg.co.nr/2015/2/Shamitabhpd/2.html&lt;/a&gt; &lt;a href=&quot;\nhttp://istoreimg.co.nr/2015/2/Shamitabhpd/3.html&quot; rel=&quot;nofollow&quot; target=&quot;_NEW&quot;&gt;\nhttp://istoreimg.co.nr/2015/2/Shamitabhpd/3.html&lt;/a&gt; &lt;a href=&quot;\nhttp://istoreimg.co.nr/2015/2/Shamitabhpd/4.html&quot; rel=&quot;nofollow&quot; target=&quot;_NEW&quot;&gt;\nhttp://istoreimg.co.nr/2015/2/Shamitabhpd/4.html&lt;/a&gt; &lt;a href=&quot;\nhttp://istoreimg.co.nr/2015/2/Shamitabhpd/5.html&quot; rel=&quot;nofollow&quot; target=&quot;_NEW&quot;&gt;\nhttp://istoreimg.co.nr/2015/2/Shamitabhpd/5.html&lt;/a&gt; &lt;a href=&quot;\nhttp://istoreimg.co.nr/2015/2/Shamitabhpd/6.html&quot; rel=&quot;nofollow&quot; target=&quot;_NEW&quot;&gt;\nhttp://istoreimg.co.nr/2015/2/Shamitabhpd/6.html&lt;/a&gt; &lt;a href=&quot;\nhttp://istoreimg.co.nr/2015/2/Shamitabhpd/7.html&quot; rel=&quot;nofollow&quot; target=&quot;_NEW&quot;&gt;\nhttp://istoreimg.co.nr/2015/2/Shamitabhpd/7.html&lt;/a&gt; &lt;a href=&quot;\nhttp://istoreimg.co.nr/2015/2/Shamitabhpd/8.html&quot; rel=&quot;nofollow&quot; target=&quot;_NEW&quot;&gt;\nhttp://istoreimg.co.nr/2015/2/Shamitabhpd/8.html&lt;/a&gt; &lt;a href=&quot;\nhttp://istoreimg.co.nr/2015/2/Shamitabhpd/9.html&quot; rel=&quot;nofollow&quot; target=&quot;_NEW&quot;&gt;\nhttp://istoreimg.co.nr/2015/2/Shamitabhpd/9.html&lt;/a&gt; &lt;a href=&quot;\nhttp://istoreimg.co.nr/2015/2/Shamitabhpd/10.html&quot; rel=&quot;nofollow&quot; target=&quot;_NEW&quot;&gt;\nhttp://istoreimg.co.nr/2015/2/Shamitabhpd/10.html&lt;/a&gt;\n\nFormat                                   : Matroska\nFormat version                           : Version 4 / Version 2\nFile size                                : 690 MiB\nDuration                                 : 2h 32mn\nOverall bit rate                         : 634 Kbps\nMovie name                               : Shamitabh 2015 Hindi Movies PDVDRip XViD AAC ~ rDX ~\n\nVideo\nID                                       : 1\nFormat                                   : MPEG-4 Visual\nFormat profile                           : Advanced Simple@L5\nFormat settings, BVOP                    : Yes\nFormat settings, QPel                    : No\nFormat settings, GMC                     : No warppoints\nFormat settings, Matrix                  : Default (H.263)\nCodec ID                                 : V_MS/VFW/FOURCC / XVID\nCodec ID/Hint                            : XviD\nDuration                                 : 2h 32mn\nBit rate                                 : 541 Kbps\nWidth                                    : 640 pixels\nHeight                                   : 272 pixels\nDisplay aspect ratio                     : 2.35:1\nFrame rate mode                          : Constant\nFrame rate                               : 23.976 fps\nColor space                              : YUV\nChroma subsampling                       : 4:2:0\nBit depth                                : 8 bits\nScan type                                : Progressive\nCompression mode                         : Lossy\nBits/(Pixel*Frame)                       : 0.130\nStream size                              : 589 MiB (85%)\nTitle                                    : ~ rDX ~\nWriting library                          : XviD 1.2.1 (UTC 2008-12-04)\nDefault                                  : Yes\nForced                                   : No\n\nAudio\nID                                       : 2\nFormat                                   : MPEG Audio\nFormat version                           : Version 1\nFormat profile                           : Layer 3\nCodec ID                                 : A_MPEG/L3\nCodec ID/Hint                            : MP3\nDuration                                 : 2h 32mn\nBit rate mode                            : Constant\nBit rate                                 : 80.0 Kbps\nChannel(s)                               : 2 channels\nSampling rate                            : 48.0 KHz\nCompression mode                         : Lossy\nStream size                              : 87.1 MiB (13%)\nTitle                                    : ~ rDX ~\nWriting library                          : LAME3.98r","torrent":{"xt":"urn:btih:9a942b2b45ab295d28eed059a056a790001ec531","amp;dn":"Shamitabh+2015+Hindi+Movies+PDVDRip+XViD+AAC+New+%2BSample+%7E+%E2%98%BBrDX%E2%98%BB","amp;tr":["udp%3A%2F%2Ftracker.openbittorrent.com%3A80","udp%3A%2F%2Fopen.demonii.com%3A1337","udp%3A%2F%2Ftracker.coppersurfer.tk%3A6969","udp%3A%2F%2Fexodus.desync.com%3A6969"],"infoHash":"9a942b2b45ab295d28eed059a056a790001ec531","infoHashBuffer":{"type":"Buffer","data":[154,148,43,43,69,171,41,93,40,238,208,89,160,86,167,144,0,30,197,49]},"announce":[],"urlList":[]}}